<?xml version="1.0" standalone="no"?>
<!DOCTYPE svg PUBLIC "-//W3C//DTD SVG 20010904//EN"
 "http://www.w3.org/TR/2001/REC-SVG-20010904/DTD/svg10.dtd">
<svg version="1.0" xmlns="http://www.w3.org/2000/svg"
 width="1024.000000pt" height="1024.000000pt" viewBox="0 0 1024.000000 1024.000000"
 preserveAspectRatio="xMidYMid meet">

<g transform="translate(0.000000,1024.000000) scale(0.100000,-0.100000)"
fill="#000000" stroke="none">
<path d="M0 5120 l0 -5120 5120 0 5120 0 0 5120 0 5120 -5120 0 -5120 0 0
-5120z m5344 3648 c8 -13 8 -23 -2 -38 -6 -11 -12 -26 -12 -34 0 -8 -6 -17
-12 -20 -10 -3 -9 -8 2 -18 13 -11 15 -61 12 -360 l-3 -348 -185 0 -184 0 0
25 c0 25 0 25 -99 25 -98 0 -100 0 -131 -31 -28 -29 -35 -31 -80 -27 -71 7
-80 18 -80 99 0 86 11 99 89 99 62 0 81 -11 81 -47 0 -23 2 -23 115 -23 l116
0 -3 143 -3 142 -103 0 c-100 -1 -104 -2 -125 -28 -19 -24 -27 -27 -67 -23
-25 3 -45 5 -45 6 0 1 -8 3 -19 5 -30 6 -37 19 -43 78 -5 52 -4 58 25 86 26
26 38 31 80 31 47 0 49 -1 67 -40 l18 -40 106 0 106 0 -3 108 c-3 86 -1 111
11 120 13 11 12 17 -4 49 -25 50 -24 70 6 80 13 4 100 6 191 3 145 -4 168 -7
178 -22z m-30 -909 c5 -4 6 -15 3 -23 -6 -14 -32 -16 -182 -16 l-175 0 0 23
c0 13 3 27 7 31 10 10 335 -4 347 -15z m17 -844 c5 -613 8 -730 22 -785 9 -36
21 -85 27 -110 6 -25 25 -74 43 -110 60 -123 119 -202 282 -374 157 -166 241
-281 291 -396 67 -155 85 -266 65 -396 -28 -169 -90 -293 -203 -406 -95 -94
-207 -161 -347 -207 -89 -29 -104 -28 -118 10 -14 37 -10 49 17 49 35 0 164
53 240 99 158 95 276 256 308 421 4 19 6 89 6 155 -1 115 -3 126 -38 213 -54
134 -115 219 -291 403 -86 90 -181 200 -211 245 -51 77 -102 176 -109 212 -2
9 -4 17 -5 17 -1 0 -3 11 -6 24 -2 14 -12 45 -20 70 -27 76 -33 231 -34 821 0
311 -3 582 -6 603 -9 53 -31 47 -37 -10 -2 -27 -5 -607 -6 -1290 l-1 -1243 59
0 c49 0 62 -4 71 -19 12 -24 13 -151 1 -170 -19 -29 -325 -31 -379 -2 -19 10
-22 20 -22 76 0 35 4 75 10 89 9 24 14 26 70 26 l60 0 0 1285 c0 1150 -2 1286
-15 1292 -9 3 -19 2 -23 -2 -4 -3 -8 -183 -9 -398 -5 -710 -10 -961 -22 -997
-6 -20 -12 -49 -14 -65 -13 -105 -81 -250 -172 -369 -16 -22 -79 -92 -140
-155 -201 -212 -283 -326 -332 -461 -24 -67 -27 -89 -27 -205 0 -96 5 -146 18
-190 40 -134 130 -263 238 -340 78 -56 247 -135 290 -135 26 0 28 -12 10 -52
l-17 -37 -70 23 c-212 68 -380 197 -470 361 -15 28 -31 55 -34 60 -9 13 -30
77 -37 107 -26 127 -31 187 -19 283 14 124 83 279 178 405 23 30 44 57 48 60
31 28 248 274 291 331 76 101 137 217 153 296 44 208 44 208 45 920 0 535 3
682 13 686 6 3 93 5 192 4 l180 -2 6 -720z m-247 -2261 c22 -9 23 -181 1 -210
-13 -17 -14 -10 -15 76 0 52 -3 105 -6 118 -7 24 -4 25 20 16z m115 -106 c-1
-57 -3 -95 -6 -85 -2 9 -9 17 -14 17 -5 0 -9 38 -9 85 0 69 3 85 15 85 12 0
15 -18 14 -102z m1 -190 c24 -35 61 -88 82 -119 87 -128 132 -262 144 -432 6
-87 4 -107 -21 -197 -32 -118 -86 -207 -160 -262 -57 -43 -80 -49 -117 -31
-15 7 -33 10 -41 8 -18 -7 -98 27 -132 57 -35 30 -51 62 -89 177 -28 88 -31
107 -31 231 0 100 4 147 17 180 26 73 104 221 145 276 62 83 147 183 154 179
3 -2 25 -32 49 -67z m-647 -259 c12 -6 70 -43 129 -82 l107 -71 -5 -70 c-2
-39 -7 -91 -9 -116 -8 -78 22 -204 83 -342 12 -27 19 -48 17 -48 -10 0 -119
61 -148 83 -93 71 -169 218 -188 363 -14 111 -23 294 -14 294 3 0 16 -5 28
-11z m1213 -61 c-4 -40 -9 -102 -12 -138 -15 -189 -61 -304 -161 -405 -32 -33
-66 -65 -75 -72 -16 -12 -154 -83 -162 -83 -5 0 25 60 47 90 10 14 25 49 33
78 14 47 18 52 32 40 12 -9 12 -7 -2 9 -16 19 -17 25 -6 39 10 11 13 56 12
174 -1 156 -1 159 22 177 62 47 253 162 270 163 4 0 5 -33 2 -72z m384 17 c0
-3 -7 -16 -15 -28 -23 -36 -73 -184 -80 -240 -10 -83 -59 -171 -143 -259 -87
-91 -132 -126 -217 -167 -80 -38 -109 -48 -179 -61 -105 -18 -114 -8 -33 35
28 16 71 42 95 59 52 37 152 174 172 236 7 25 17 50 21 55 7 9 27 98 35 155
13 88 18 110 26 110 5 0 41 16 81 36 39 20 97 45 127 55 53 17 110 25 110 14z
m-1831 -52 c36 -14 80 -36 98 -49 17 -13 36 -24 42 -24 9 0 21 -46 19 -80 0
-30 20 -148 30 -166 5 -11 18 -39 28 -64 21 -52 88 -157 118 -184 39 -34 101
-73 176 -110 l75 -37 -80 5 c-95 5 -116 9 -175 30 -44 16 -150 73 -160 85 -3
3 -31 28 -63 55 -98 82 -200 240 -196 303 3 33 -41 158 -76 217 -14 24 -22 46
-17 50 12 14 112 -3 181 -31z m242 -704 c16 -11 29 -18 29 -14 0 3 9 1 21 -6
43 -23 164 -50 231 -52 l69 -2 -24 -21 c-42 -36 -191 -113 -248 -127 -101 -26
-229 -4 -308 52 -30 22 -123 51 -160 51 l-26 0 30 25 c17 13 36 22 42 20 7 -2
12 1 10 7 -3 14 64 54 123 72 71 23 176 20 211 -5z m1393 7 c56 -21 113 -55
159 -95 l45 -39 -51 -4 c-34 -3 -89 -22 -157 -53 -104 -48 -106 -49 -205 -48
-118 0 -166 16 -271 86 -112 77 -143 100 -116 92 54 -16 193 -8 226 13 6 4 20
7 31 8 11 1 52 13 90 28 76 28 188 34 249 12z m-2364 -12 c63 -19 137 -57 177
-92 56 -49 168 -116 232 -138 87 -30 52 -30 -82 1 -67 15 -127 35 -155 53
-115 69 -195 93 -316 92 -93 0 -176 -20 -266 -62 -25 -11 -81 -36 -125 -55
-44 -18 -88 -38 -99 -44 -10 -6 -53 -22 -95 -36 -62 -21 -94 -26 -175 -25 -95
0 -102 2 -180 41 -84 42 -176 114 -164 127 4 4 14 2 21 -4 46 -38 245 -94 332
-94 61 1 284 86 435 166 34 18 144 56 205 71 72 18 192 18 255 -1z m3358 -4
c128 -34 141 -39 319 -126 249 -120 333 -141 436 -110 25 7 48 12 50 9 3 -2
42 14 87 36 45 23 87 41 94 41 23 -1 -99 -100 -163 -132 -61 -30 -74 -33 -161
-33 -96 0 -225 28 -214 46 3 5 -2 6 -9 3 -8 -3 -64 18 -124 46 -237 113 -353
147 -461 136 -98 -10 -161 -30 -253 -79 -82 -44 -160 -70 -247 -81 -24 -3 -47
-8 -52 -11 -5 -3 -11 -1 -14 4 -3 5 9 12 27 15 51 9 167 69 217 111 25 21 55
42 68 48 12 6 22 13 22 17 0 10 101 58 134 64 16 3 31 8 34 11 13 12 138 3
210 -15z m-1862 -52 c4 -6 8 -55 9 -109 2 -76 0 -99 -11 -103 -8 -3 -14 -11
-14 -18 0 -8 3 -9 8 -3 7 10 30 11 62 4 8 -2 14 1 13 8 -2 7 3 10 10 8 9 -4
11 20 10 99 -2 116 -2 116 71 120 24 2 35 -4 49 -27 9 -15 15 -33 11 -38 -3
-5 -2 -8 3 -7 5 2 22 -9 38 -24 16 -16 33 -28 37 -28 5 0 8 -7 8 -15 0 -9 9
-15 21 -15 18 0 20 -4 14 -32 -27 -138 -68 -200 -190 -288 -33 -23 -65 -48
-70 -54 -6 -6 -20 -19 -32 -30 -22 -18 -23 -18 -60 16 -21 19 -62 57 -92 84
-67 61 -134 160 -128 191 2 12 0 20 -4 17 -8 -5 -15 15 -21 61 -3 17 2 20 27
17 20 -2 26 0 17 6 -10 7 -1 18 35 45 26 19 64 52 83 72 46 49 83 65 96 43z
m-1431 -339 c59 -11 128 -37 245 -95 47 -22 96 -45 110 -49 14 -4 30 -11 35
-15 16 -13 126 -36 160 -34 76 4 168 16 191 24 13 5 35 12 47 14 43 9 201 68
250 93 l50 25 -24 -29 c-42 -51 -231 -161 -304 -177 -5 -1 -37 -10 -70 -20
-85 -25 -167 -27 -255 -4 -68 18 -114 36 -297 119 -108 49 -169 63 -288 63
-95 0 -121 -4 -190 -28 -44 -16 -106 -41 -137 -57 -114 -57 -225 -60 -361 -9
-62 23 -67 47 -7 30 53 -15 206 -4 268 20 29 11 92 39 140 61 78 36 160 67
217 82 25 7 153 -1 220 -14z m3234 -5 c36 -9 100 -32 141 -51 136 -64 175 -80
205 -88 44 -11 214 -21 208 -13 -2 5 7 8 21 8 39 0 31 -17 -16 -33 -89 -32
-108 -35 -188 -31 -64 4 -97 11 -148 35 -159 73 -215 90 -302 96 -112 7 -210
-18 -361 -90 -63 -30 -148 -67 -189 -82 -143 -52 -288 -35 -470 53 -79 39
-226 139 -217 148 2 3 38 -12 79 -31 172 -82 399 -124 526 -96 43 9 167 59
337 136 61 28 91 37 140 45 85 13 166 11 234 -6z m-2029 -446 c47 -11 90 -24
95 -28 6 -4 40 -18 77 -30 88 -29 135 -25 241 24 32 14 64 26 73 26 8 0 24 5
34 10 33 18 209 21 268 6 28 -8 52 -13 52 -11 0 2 37 -10 83 -27 192 -72 325
-85 462 -47 39 10 77 21 86 23 8 2 32 11 54 20 21 9 40 14 42 12 10 -9 -149
-96 -221 -121 -133 -45 -229 -34 -467 54 -31 11 -80 23 -110 26 -29 4 -56 8
-59 10 -8 5 -176 -22 -225 -36 -22 -6 -45 -15 -52 -21 -7 -5 -17 -7 -23 -3 -6
4 -9 1 -8 -7 2 -7 -18 -20 -47 -30 -78 -28 -150 -18 -260 37 -164 81 -278 81
-500 -2 -108 -40 -129 -45 -210 -46 -90 -1 -175 10 -175 22 0 4 -9 7 -20 8
-22 2 -155 78 -166 95 -5 7 -1 9 12 5 10 -4 58 -20 107 -36 71 -25 104 -31
180 -31 98 -1 132 7 288 64 114 41 220 65 269 59 19 -2 73 -13 120 -25z m110
-387 c79 -26 100 -29 177 -25 117 7 113 6 113 16 0 4 8 8 19 8 22 0 115 37
184 72 37 19 14 -9 -39 -47 -30 -22 -67 -49 -82 -61 -64 -50 -182 -75 -280
-60 -54 8 -132 49 -202 105 -89 72 -93 77 -33 47 29 -14 93 -39 143 -55z"/>
<path d="M5047 8633 c-3 -5 -5 -142 -6 -305 l-2 -298 105 0 106 0 0 305 0 305
-99 0 c-55 0 -102 -3 -104 -7z"/>
<path d="M4652 7974 c10 -10 20 -16 22 -13 3 3 -5 11 -17 18 -21 13 -21 12 -5
-5z"/>
<path d="M5100 6320 l0 -1290 35 0 35 0 0 1290 0 1290 -35 0 -35 0 0 -1290z"/>
<path d="M4570 3820 c0 -5 5 -10 11 -10 5 0 7 5 4 10 -3 6 -8 10 -11 10 -2 0
-4 -4 -4 -10z"/>
<path d="M4660 3823 c0 -6 8 -17 18 -24 16 -13 16 -13 2 6 -8 11 -16 22 -17
24 -2 2 -3 0 -3 -6z"/>
<path d="M5495 3990 c3 -5 8 -10 11 -10 2 0 4 5 4 10 0 6 -5 10 -11 10 -5 0
-7 -4 -4 -10z"/>
<path d="M5508 3838 c5 -5 16 -8 23 -6 8 3 3 7 -10 11 -17 4 -21 3 -13 -5z"/>
<path d="M5650 3825 c13 -14 26 -23 28 -20 5 5 -36 45 -46 45 -3 0 5 -11 18
-25z"/>
<path d="M5490 3820 c0 -6 7 -10 15 -10 8 0 15 2 15 4 0 2 -7 6 -15 10 -8 3
-15 1 -15 -4z"/>
<path d="M5506 3703 c-6 -14 -5 -15 5 -6 7 7 10 15 7 18 -3 3 -9 -2 -12 -12z"/>
<path d="M4917 3159 c7 -7 15 -10 18 -7 3 3 -2 9 -12 12 -14 6 -15 5 -6 -5z"/>
<path d="M4905 3140 c10 -11 20 -20 23 -20 3 0 -3 9 -13 20 -10 11 -20 20 -23
20 -3 0 3 -9 13 -20z"/>
<path d="M3158 2843 c7 -3 16 -2 19 1 4 3 -2 6 -13 5 -11 0 -14 -3 -6 -6z"/>
<path d="M6150 2740 c0 -5 5 -10 11 -10 5 0 7 5 4 10 -3 6 -8 10 -11 10 -2 0
-4 -4 -4 -10z"/>
</g>
</svg>
